<svg xmlns="http://www.w3.org/2000/svg" width="512" height="512" viewBox="0 0 512 512" version="1.1"><path d="M 345.257 225.003 L 328.136 277.005 333.414 282.284 C 339.377 288.247, 343 296.263, 343 303.494 L 343 307.912 370.633 316.990 C 385.831 321.982, 398.401 325.933, 398.566 325.768 C 399.988 324.345, 401.466 299.271, 401.411 277.500 C 401.338 249.181, 400.115 236.488, 395.051 211.500 C 390.879 190.909, 389.392 186.415, 385.939 183.956 C 381.991 181.146, 365.509 173, 363.769 173 C 362.819 173, 356.952 189.483, 345.257 225.003" stroke="none" fill="#eb5468" fill-rule="evenodd"/><path d="M 388.295 186.102 C 389.960 188.704, 393.968 204.426, 396.427 218 C 402.396 250.958, 403.404 286.373, 399.370 321.500 L 398.796 326.500 423.601 334.732 C 441.738 340.751, 448.605 342.639, 449.150 341.757 C 449.561 341.093, 450.707 336.264, 451.698 331.025 C 454.125 318.197, 454.107 292.086, 451.663 279.730 C 445.815 250.169, 432.489 225.305, 411.068 203.988 C 399.398 192.374, 385.145 181.180, 388.295 186.102" stroke="none" fill="#e5384f" fill-rule="evenodd"/><path d="M 387.752 103.191 C 385.165 110.996, 383.150 117.421, 383.274 117.470 C 383.398 117.518, 386.875 119.050, 391 120.874 C 395.125 122.698, 399.125 124.260, 399.888 124.345 C 401.472 124.522, 411.494 96.043, 410.244 94.918 C 409.548 94.291, 394.107 89, 392.975 89 C 392.690 89, 390.339 95.386, 387.752 103.191 M 393.507 353.686 C 390.057 368.681, 385.204 384.017, 378.739 400.350 L 373.653 413.199 377.826 421.614 L 382 430.029 386.250 427.296 C 403.114 416.451, 418.767 401.196, 429.365 385.277 C 436.325 374.822, 444.350 358.919, 443.193 357.875 C 442.812 357.531, 432.600 353.977, 420.500 349.978 C 408.400 345.978, 397.988 342.518, 397.363 342.289 C 396.640 342.024, 395.234 346.180, 393.507 353.686 M 362.083 435.066 C 360.826 437.302, 359.999 439.333, 360.246 439.579 C 360.492 439.825, 362.344 439.336, 364.362 438.493 L 368.031 436.960 366.490 433.980 C 365.642 432.341, 364.818 431, 364.658 431 C 364.499 431, 363.340 432.830, 362.083 435.066" stroke="none" fill="#d9eeff" fill-rule="evenodd"/><path d="M 387.752 103.191 C 385.165 110.996, 383.150 117.421, 383.274 117.470 C 383.398 117.518, 386.875 119.050, 391 120.874 C 395.125 122.698, 399.125 124.260, 399.888 124.345 C 401.472 124.522, 411.494 96.043, 410.244 94.918 C 409.548 94.291, 394.107 89, 392.975 89 C 392.690 89, 390.339 95.386, 387.752 103.191 M 393.507 353.686 C 390.057 368.681, 385.204 384.017, 378.739 400.350 L 373.653 413.199 377.826 421.614 L 382 430.029 386.250 427.296 C 403.114 416.451, 418.767 401.196, 429.365 385.277 C 436.325 374.822, 444.350 358.919, 443.193 357.875 C 442.812 357.531, 432.600 353.977, 420.500 349.978 C 408.400 345.978, 397.988 342.518, 397.363 342.289 C 396.640 342.024, 395.234 346.180, 393.507 353.686 M 362.083 435.066 C 360.826 437.302, 359.999 439.333, 360.246 439.579 C 360.492 439.825, 362.344 439.336, 364.362 438.493 L 368.031 436.960 366.490 433.980 C 365.642 432.341, 364.818 431, 364.658 431 C 364.499 431, 363.340 432.830, 362.083 435.066" stroke="none" fill="#d9eeff" fill-rule="evenodd"/><path d="M 349.724 91.286 C 347.126 99.144, 345 105.835, 345 106.156 C 345 106.477, 347.813 107.283, 351.250 107.947 C 358.761 109.398, 373.969 113.671, 378.788 115.685 C 380.700 116.483, 382.598 116.769, 383.007 116.318 C 383.860 115.379, 392 91.043, 392 89.431 C 392 88.488, 358.074 76.922, 355.474 76.978 C 354.910 76.990, 352.323 83.429, 349.724 91.286 M 297.184 163.104 C 286.208 164.080, 269.988 167.823, 260.162 171.645 L 253.165 174.368 257.582 183.164 C 263.404 194.755, 263.308 198.387, 257.113 200.953 C 252.051 203.050, 249.175 200.812, 244 190.752 C 241.525 185.941, 239.126 182.004, 238.670 182.002 C 236.917 181.997, 220.168 194.203, 213.271 200.512 C 200.336 212.342, 187.167 230.527, 180.057 246.372 L 177.052 253.069 179.313 253.929 C 180.556 254.401, 184.747 255.733, 188.627 256.889 C 198.394 259.798, 201.613 263.980, 198.589 269.829 C 195.932 274.966, 192.869 275.181, 180.749 271.084 L 172.122 268.168 170.496 275.318 C 164.689 300.849, 166.962 331.040, 176.588 356.231 L 179.174 362.998 187.772 358.499 C 192.500 356.024, 197.536 354, 198.962 354 C 204.977 354, 208.766 360.656, 205.547 365.568 C 204.651 366.936, 200.111 369.943, 195.459 372.251 C 190.806 374.558, 186.998 376.908, 186.996 377.473 C 186.993 378.038, 189.562 382.325, 192.704 387 C 200.690 398.883, 218.118 416.056, 230.535 424.276 C 241.199 431.336, 257.083 439.348, 258.126 438.193 C 258.470 437.812, 259.985 433.675, 261.492 429 C 262.999 424.325, 265.070 419.623, 266.094 418.550 C 268.782 415.734, 274.713 415.928, 277.129 418.911 C 279.690 422.073, 279.489 425.179, 276.070 435.293 L 273.140 443.961 276.820 444.929 C 286.857 447.570, 295.787 448.496, 311 448.471 C 328.049 448.443, 335.911 447.346, 351.739 442.784 C 358.685 440.783, 359.094 440.492, 361.868 435.599 L 364.758 430.500 361.879 424.779 C 360.296 421.632, 359 417.899, 359 416.483 C 359 413.373, 363.102 409, 366.020 409 C 368.298 409, 372.132 410.738, 373.094 412.206 C 373.774 413.245, 382.295 392.099, 386.877 378 C 390.384 367.209, 396.319 342.986, 395.627 342.293 C 395.374 342.041, 382.458 337.615, 366.925 332.457 L 338.681 323.080 334.911 327.364 C 332.837 329.720, 329.114 332.723, 326.638 334.036 C 322.816 336.064, 322.197 336.809, 322.545 338.962 C 322.771 340.358, 323.456 345.680, 324.068 350.788 C 325.044 358.942, 324.979 360.383, 323.538 362.583 C 321.364 365.901, 317.825 367.184, 314.267 365.943 C 310.064 364.478, 309.151 362.171, 307.856 349.752 L 306.675 338.415 300.937 336.724 C 291 333.796, 281.649 324.597, 279.033 315.177 C 277.673 310.282, 277.821 299.352, 279.306 295.013 L 280.500 291.525 256.500 269.675 C 227.498 243.271, 228 243.804, 228 239.444 C 228 234.886, 230.924 232, 235.543 232 C 238.319 232, 240.105 232.929, 243.793 236.293 C 246.382 238.654, 256.375 247.736, 266 256.475 C 275.625 265.214, 285.075 273.838, 287 275.638 L 290.500 278.911 296.500 275.961 C 300.499 273.996, 304.224 272.958, 307.669 272.850 L 312.838 272.689 330.224 220.094 L 347.610 167.500 340.575 165.786 C 333.791 164.133, 314.144 161.865, 309 162.141 C 307.625 162.215, 302.308 162.648, 297.184 163.104" stroke="none" fill="#eff6ff" fill-rule="evenodd"/><path d="M 349.724 91.286 C 347.126 99.144, 345 105.835, 345 106.156 C 345 106.477, 347.813 107.283, 351.250 107.947 C 358.761 109.398, 373.969 113.671, 378.788 115.685 C 380.700 116.483, 382.598 116.769, 383.007 116.318 C 383.860 115.379, 392 91.043, 392 89.431 C 392 88.488, 358.074 76.922, 355.474 76.978 C 354.910 76.990, 352.323 83.429, 349.724 91.286 M 297.184 163.104 C 286.208 164.080, 269.988 167.823, 260.162 171.645 L 253.165 174.368 257.582 183.164 C 263.404 194.755, 263.308 198.387, 257.113 200.953 C 252.051 203.050, 249.175 200.812, 244 190.752 C 241.525 185.941, 239.126 182.004, 238.670 182.002 C 236.917 181.997, 220.168 194.203, 213.271 200.512 C 200.336 212.342, 187.167 230.527, 180.057 246.372 L 177.052 253.069 179.313 253.929 C 180.556 254.401, 184.747 255.733, 188.627 256.889 C 198.394 259.798, 201.613 263.980, 198.589 269.829 C 195.932 274.966, 192.869 275.181, 180.749 271.084 L 172.122 268.168 170.496 275.318 C 164.689 300.849, 166.962 331.040, 176.588 356.231 L 179.174 362.998 187.772 358.499 C 192.500 356.024, 197.536 354, 198.962 354 C 204.977 354, 208.766 360.656, 205.547 365.568 C 204.651 366.936, 200.111 369.943, 195.459 372.251 C 190.806 374.558, 186.998 376.908, 186.996 377.473 C 186.993 378.038, 189.562 382.325, 192.704 387 C 200.690 398.883, 218.118 416.056, 230.535 424.276 C 241.199 431.336, 257.083 439.348, 258.126 438.193 C 258.470 437.812, 259.985 433.675, 261.492 429 C 262.999 424.325, 265.070 419.623, 266.094 418.550 C 268.782 415.734, 274.713 415.928, 277.129 418.911 C 279.690 422.073, 279.489 425.179, 276.070 435.293 L 273.140 443.961 276.820 444.929 C 286.857 447.570, 295.787 448.496, 311 448.471 C 328.049 448.443, 335.911 447.346, 351.739 442.784 C 358.685 440.783, 359.094 440.492, 361.868 435.599 L 364.758 430.500 361.879 424.779 C 360.296 421.632, 359 417.899, 359 416.483 C 359 413.373, 363.102 409, 366.020 409 C 368.298 409, 372.132 410.738, 373.094 412.206 C 373.774 413.245, 382.295 392.099, 386.877 378 C 390.384 367.209, 396.319 342.986, 395.627 342.293 C 395.374 342.041, 382.458 337.615, 366.925 332.457 L 338.681 323.080 334.911 327.364 C 332.837 329.720, 329.114 332.723, 326.638 334.036 C 322.816 336.064, 322.197 336.809, 322.545 338.962 C 322.771 340.358, 323.456 345.680, 324.068 350.788 C 325.044 358.942, 324.979 360.383, 323.538 362.583 C 321.364 365.901, 317.825 367.184, 314.267 365.943 C 310.064 364.478, 309.151 362.171, 307.856 349.752 L 306.675 338.415 300.937 336.724 C 291 333.796, 281.649 324.597, 279.033 315.177 C 277.673 310.282, 277.821 299.352, 279.306 295.013 L 280.500 291.525 256.500 269.675 C 227.498 243.271, 228 243.804, 228 239.444 C 228 234.886, 230.924 232, 235.543 232 C 238.319 232, 240.105 232.929, 243.793 236.293 C 246.382 238.654, 256.375 247.736, 266 256.475 C 275.625 265.214, 285.075 273.838, 287 275.638 L 290.500 278.911 296.500 275.961 C 300.499 273.996, 304.224 272.958, 307.669 272.850 L 312.838 272.689 330.224 220.094 L 347.610 167.500 340.575 165.786 C 333.791 164.133, 314.144 161.865, 309 162.141 C 307.625 162.215, 302.308 162.648, 297.184 163.104" stroke="none" fill="#eff6ff" fill-rule="evenodd"/><path d="M 339.620 5.203 C 337.476 5.787, 334.048 7.952, 331.958 10.042 C 328.670 13.330, 327.434 16.080, 322.501 31.086 C 317.792 45.408, 316.934 49.073, 317.463 52.601 C 318.681 60.727, 324.705 66.695, 334.587 69.568 L 339.799 71.083 334.252 87.792 L 328.705 104.500 313.148 104.199 C 304.591 104.034, 293.745 104.361, 289.045 104.927 C 281.725 105.808, 280.167 106.338, 278.177 108.619 C 276.469 110.576, 276.022 111.973, 276.490 113.891 C 277.359 117.454, 280.266 120.203, 283.126 120.165 C 284.432 120.147, 293.425 119.815, 303.112 119.426 C 328.681 118.399, 347.452 121.095, 370.809 129.149 C 399.813 139.149, 423.600 154.385, 445 176.666 C 470.083 202.782, 485.863 232.960, 493.725 269.850 C 496.208 281.502, 496.421 284.315, 496.421 305.500 C 496.421 326.728, 496.212 329.483, 493.704 341.256 C 492.209 348.272, 489.370 358.847, 487.394 364.756 C 466.276 427.927, 413.537 474.644, 347.569 488.614 C 332.609 491.783, 302.877 492.978, 287.290 491.039 C 256.671 487.228, 223.331 473.790, 198.366 455.196 C 187.443 447.060, 170.422 430.194, 162.322 419.479 C 142.321 393.021, 128.962 360.556, 124.970 328.710 C 123.019 313.148, 124.211 283.423, 127.386 268.431 C 137.968 218.460, 166.932 176.503, 210.500 148.029 C 219.440 142.186, 237.114 133.459, 247 130.005 C 254.546 127.369, 257 125.048, 257 120.544 C 257 117.314, 255.141 114.886, 251.746 113.682 C 249.286 112.809, 234.374 118.254, 222.500 124.359 L 212.500 129.500 179.660 130 L 146.820 130.500 144.910 132.861 C 142.471 135.875, 142.471 140.124, 144.909 143.139 C 146.770 145.440, 147.317 145.513, 166.333 146 L 185.848 146.500 176.720 154.500 C 164.378 165.317, 152.426 179.058, 142.799 193.500 C 135.145 204.983, 123.874 226.451, 122.456 232.250 L 121.783 235 94.939 235 C 77.117 235, 67.261 235.380, 65.615 236.130 C 60.061 238.660, 60.061 247.340, 65.615 249.870 C 67.238 250.610, 76.402 251, 92.154 251 C 114.050 251, 116.157 251.148, 115.584 252.641 C 113.690 257.577, 109.919 280.320, 109.016 292.256 C 108.033 305.244, 108.715 324.113, 110.593 335.856 L 111.256 340 70.082 340 L 28.909 340 26.455 342.455 C 23.207 345.702, 23.207 350.298, 26.455 353.545 L 28.909 356 71.772 356 L 114.635 356 118.946 369.067 C 126.860 393.055, 141.126 418.491, 156.914 436.761 L 164.033 445 129.471 445 L 94.909 445 92.455 447.455 C 89.207 450.702, 89.207 455.298, 92.455 458.545 L 94.909 461 138.031 461 L 181.152 461 186.826 465.363 C 212.999 485.486, 246.222 499.873, 278.295 504.972 C 347.895 516.038, 419.477 489.429, 464.614 435.714 C 487.935 407.961, 502.351 376.902, 509.506 339 C 511.479 328.549, 513.091 294.323, 511.932 287.500 C 505.619 250.344, 501.728 237.341, 489.794 213.524 C 474.688 183.376, 450.747 156.506, 421.849 137.267 L 415.199 132.839 420.575 116.777 C 423.531 107.944, 426.143 100.524, 426.379 100.288 C 426.614 100.053, 429.888 100.816, 433.653 101.985 C 441.351 104.374, 445.258 104.085, 451.348 100.675 C 456.531 97.774, 459 93.117, 464.415 76.028 C 469.245 60.782, 469.859 55.979, 467.648 50.718 C 464.647 43.576, 461.121 41.548, 439.531 34.546 C 428.429 30.946, 418.469 28, 417.396 28 C 413.655 28, 410.999 30.834, 411.015 34.807 C 411.024 36.838, 411.437 39.142, 411.933 39.926 C 412.430 40.711, 421.736 44.350, 432.614 48.014 C 443.965 51.837, 452.833 55.374, 453.428 56.316 C 454.801 58.493, 445.667 86.573, 443.147 87.921 C 440.904 89.122, 334.270 54.235, 332.945 51.867 C 332.339 50.783, 333.519 45.871, 336.665 36.389 C 339.200 28.750, 341.717 21.938, 342.259 21.250 C 343.907 19.160, 346.851 19.762, 365.500 26 C 375.366 29.300, 384.711 32, 386.267 32 C 389.403 32, 394 27.833, 394 24.989 C 394 24.043, 393.074 22.092, 391.941 20.652 C 390.295 18.560, 385.895 16.739, 370.002 11.574 C 347.446 4.244, 345.012 3.733, 339.620 5.203 M 348.994 90.614 C 346.206 99.115, 344.194 106.505, 344.522 107.035 C 344.850 107.566, 345.942 108, 346.950 108 C 352.713 108, 378.175 115.939, 392.295 122.138 C 397.132 124.262, 401.259 126, 401.465 126 C 401.672 126, 403.909 119.491, 406.438 111.535 C 408.967 103.580, 411.286 96.419, 411.591 95.623 C 412.139 94.196, 411.146 93.839, 361.281 77.521 L 354.063 75.158 348.994 90.614 M 2.635 132.073 C -1.087 135, -1.087 141, 2.635 143.927 C 5.219 145.960, 6.214 146, 54.079 146 L 102.888 146 105.611 143.658 C 109.346 140.445, 109.346 135.555, 105.611 132.342 L 102.888 130 54.079 130 C 6.214 130, 5.219 130.040, 2.635 132.073 M 294 148.108 C 256.712 152.328, 225.266 167.574, 198.454 194.432 C 175.097 217.828, 161.296 243.712, 154.818 276.272 C 151.595 292.472, 151.594 318.791, 154.815 334.828 C 167.826 399.605, 214.956 447.158, 280 461.137 C 288.919 463.053, 293.511 463.393, 310.500 463.393 C 327.489 463.393, 332.081 463.053, 341 461.137 C 395.693 449.383, 439.124 412.834, 458.037 362.646 C 466.805 339.379, 470.182 316.347, 468.144 293.721 C 466.045 270.415, 461.785 255.244, 451.514 234.500 C 433.119 197.350, 399.196 168.100, 359.500 155.162 C 338.299 148.252, 314.950 145.737, 294 148.108 M 292 162.616 C 279.678 164.823, 272.484 166.545, 264.664 169.157 C 250.558 173.869, 251.285 172.616, 256.563 183.126 C 261.663 193.281, 261.883 196.274, 257.752 199.345 C 253.018 202.864, 250.275 200.990, 244.850 190.532 C 242.292 185.601, 239.700 181.400, 239.090 181.197 C 238.480 180.993, 234.048 183.441, 229.241 186.635 C 217.039 194.742, 199.125 212.838, 190.704 225.561 C 184.942 234.268, 175.333 252.769, 176.203 253.483 C 176.366 253.618, 180.854 255.165, 186.175 256.921 C 196.395 260.295, 197.459 260.998, 198.476 265.049 C 199.357 268.558, 195.804 273, 192.115 273 C 190.608 273, 185.388 271.652, 180.516 270.005 C 175.643 268.358, 171.562 267.121, 171.447 267.255 C 170.600 268.244, 167.903 283.460, 166.972 292.500 C 164.997 311.690, 167.383 331.346, 174.164 351.750 C 176.403 358.488, 178.416 364, 178.638 364 C 178.859 364, 183.123 361.949, 188.114 359.443 C 198.281 354.337, 201.274 354.116, 204.345 358.248 C 207.940 363.084, 206.042 365.704, 194.699 371.562 L 184.897 376.624 190.820 385.562 C 205.438 407.620, 224.639 424.324, 248.216 435.492 C 253.449 437.972, 258.001 440, 258.329 440 C 258.658 440, 260.366 435.463, 262.123 429.918 C 265.579 419.017, 267.858 416.246, 272.423 417.391 C 278.783 418.988, 279.317 422.728, 275.005 435.484 C 273.358 440.357, 272.128 444.462, 272.272 444.606 C 272.416 444.749, 277.251 445.868, 283.017 447.090 C 291.317 448.850, 296.936 449.326, 310 449.376 C 326.598 449.439, 336.261 448.216, 350 444.313 C 354.668 442.987, 367.830 438.181, 368.812 437.443 C 368.984 437.314, 367.072 433.121, 364.562 428.124 C 359.392 417.830, 359.030 415.260, 362.314 412.174 C 367.264 407.525, 370.693 409.653, 376.561 421.014 C 379.114 425.956, 381.723 430, 382.360 430 C 385.489 430, 401.623 417.592, 412.129 407.106 C 426.510 392.753, 436.802 377.724, 442.974 362.066 L 444.935 357.092 391.758 339.608 L 338.582 322.124 333.940 326.966 C 331.386 329.629, 327.508 332.721, 325.321 333.836 L 321.344 335.865 322.774 347.953 C 324.050 358.746, 324.038 360.293, 322.659 362.397 C 320.437 365.790, 316.261 366.582, 313.073 364.218 C 310.788 362.522, 310.353 361.145, 309.184 351.904 C 307.416 337.924, 307.189 337, 305.518 337 C 301.606 337, 292.668 332.499, 288.460 328.409 C 281.904 322.038, 278.778 314.689, 278.778 305.651 C 278.778 301.493, 279.417 296.939, 280.294 294.838 L 281.811 291.208 268.690 279.354 C 233.108 247.209, 229 243.094, 229 239.593 C 229 235.548, 231.602 233, 235.732 233 C 238.342 233, 242.497 236.364, 263.208 255.250 C 276.629 267.488, 288.279 278.040, 289.097 278.700 C 290.290 279.662, 291.703 279.336, 296.223 277.056 C 299.405 275.451, 304.482 273.908, 307.879 273.514 L 313.898 272.815 315.875 266.658 C 316.962 263.271, 324.635 239.970, 332.926 214.877 C 341.217 189.784, 348 168.586, 348 167.769 C 348 164.978, 333.395 162.758, 313 162.449 C 302.825 162.295, 293.375 162.370, 292 162.616 M 361.354 173.750 C 361.101 174.713, 353.317 198.431, 344.055 226.458 L 327.215 277.415 332.050 281.958 C 337.687 287.253, 341.558 295.066, 342.520 303.085 L 343.189 308.669 395.459 325.835 C 424.207 335.276, 448.176 343, 448.722 343 C 452.280 343, 455.366 302.924, 453.051 286.776 C 446.223 239.139, 417.667 198.912, 375.342 177.305 C 364.123 171.578, 362.061 171.054, 361.354 173.750 M 32 185 C 30.762 186.238, 30 188.333, 30 190.500 C 30 192.667, 30.762 194.762, 32 196 C 33.931 197.931, 35.333 198, 72.927 198 L 111.855 198 113.927 195.365 C 116.677 191.870, 116.545 188.454, 113.545 185.455 L 111.091 183 72.545 183 C 35.333 183, 33.931 183.069, 32 185 M 2.750 289.080 C 0.112 290.617, 0.254 300.530, 2.934 301.965 C 4.142 302.611, 15.912 303, 34.260 303 L 63.651 303 65.826 300.686 C 68.714 297.611, 68.652 292.961, 65.686 290.174 C 63.416 288.042, 62.802 288.001, 33.936 288.030 C 15.809 288.049, 3.828 288.452, 2.750 289.080 M 302.180 289.626 C 296.566 292.487, 293.628 297.336, 293.249 304.370 C 292.981 309.352, 293.352 311.246, 295.230 314.480 C 301.855 325.889, 319.284 325.736, 325.761 314.212 C 330.075 306.536, 327.811 295.850, 320.815 290.868 C 316.545 287.828, 306.963 287.189, 302.180 289.626 M 48 395 C 46.762 396.238, 46 398.333, 46 400.500 C 46 402.667, 46.762 404.762, 48 406 C 49.878 407.878, 51.333 408, 71.826 408 C 93.347 408, 93.682 407.968, 95.826 405.686 C 98.714 402.611, 98.652 397.961, 95.686 395.174 C 93.456 393.080, 92.574 393, 71.686 393 C 51.333 393, 49.877 393.123, 48 395" stroke="none" fill="#000000" fill-rule="evenodd"/><path d="M 339.620 5.203 C 337.476 5.787, 334.048 7.952, 331.958 10.042 C 328.670 13.330, 327.434 16.080, 322.501 31.086 C 317.792 45.408, 316.934 49.073, 317.463 52.601 C 318.681 60.727, 324.705 66.695, 334.587 69.568 L 339.799 71.083 334.252 87.792 L 328.705 104.500 313.148 104.199 C 304.591 104.034, 293.745 104.361, 289.045 104.927 C 281.725 105.808, 280.167 106.338, 278.177 108.619 C 276.469 110.576, 276.022 111.973, 276.490 113.891 C 277.359 117.454, 280.266 120.203, 283.126 120.165 C 284.432 120.147, 293.425 119.815, 303.112 119.426 C 328.681 118.399, 347.452 121.095, 370.809 129.149 C 399.813 139.149, 423.600 154.385, 445 176.666 C 470.083 202.782, 485.863 232.960, 493.725 269.850 C 496.208 281.502, 496.421 284.315, 496.421 305.500 C 496.421 326.728, 496.212 329.483, 493.704 341.256 C 492.209 348.272, 489.370 358.847, 487.394 364.756 C 466.276 427.927, 413.537 474.644, 347.569 488.614 C 332.609 491.783, 302.877 492.978, 287.290 491.039 C 256.671 487.228, 223.331 473.790, 198.366 455.196 C 187.443 447.060, 170.422 430.194, 162.322 419.479 C 142.321 393.021, 128.962 360.556, 124.970 328.710 C 123.019 313.148, 124.211 283.423, 127.386 268.431 C 137.968 218.460, 166.932 176.503, 210.500 148.029 C 219.440 142.186, 237.114 133.459, 247 130.005 C 254.546 127.369, 257 125.048, 257 120.544 C 257 117.314, 255.141 114.886, 251.746 113.682 C 249.286 112.809, 234.374 118.254, 222.500 124.359 L 212.500 129.500 179.660 130 L 146.820 130.500 144.910 132.861 C 142.471 135.875, 142.471 140.124, 144.909 143.139 C 146.770 145.440, 147.317 145.513, 166.333 146 L 185.848 146.500 176.720 154.500 C 164.378 165.317, 152.426 179.058, 142.799 193.500 C 135.145 204.983, 123.874 226.451, 122.456 232.250 L 121.783 235 94.939 235 C 77.117 235, 67.261 235.380, 65.615 236.130 C 60.061 238.660, 60.061 247.340, 65.615 249.870 C 67.238 250.610, 76.402 251, 92.154 251 C 114.050 251, 116.157 251.148, 115.584 252.641 C 113.690 257.577, 109.919 280.320, 109.016 292.256 C 108.033 305.244, 108.715 324.113, 110.593 335.856 L 111.256 340 70.082 340 L 28.909 340 26.455 342.455 C 23.207 345.702, 23.207 350.298, 26.455 353.545 L 28.909 356 71.772 356 L 114.635 356 118.946 369.067 C 126.860 393.055, 141.126 418.491, 156.914 436.761 L 164.033 445 129.471 445 L 94.909 445 92.455 447.455 C 89.207 450.702, 89.207 455.298, 92.455 458.545 L 94.909 461 138.031 461 L 181.152 461 186.826 465.363 C 212.999 485.486, 246.222 499.873, 278.295 504.972 C 347.895 516.038, 419.477 489.429, 464.614 435.714 C 487.935 407.961, 502.351 376.902, 509.506 339 C 511.479 328.549, 513.091 294.323, 511.932 287.500 C 505.619 250.344, 501.728 237.341, 489.794 213.524 C 474.688 183.376, 450.747 156.506, 421.849 137.267 L 415.199 132.839 420.575 116.777 C 423.531 107.944, 426.143 100.524, 426.379 100.288 C 426.614 100.053, 429.888 100.816, 433.653 101.985 C 441.351 104.374, 445.258 104.085, 451.348 100.675 C 456.531 97.774, 459 93.117, 464.415 76.028 C 469.245 60.782, 469.859 55.979, 467.648 50.718 C 464.647 43.576, 461.121 41.548, 439.531 34.546 C 428.429 30.946, 418.469 28, 417.396 28 C 413.655 28, 410.999 30.834, 411.015 34.807 C 411.024 36.838, 411.437 39.142, 411.933 39.926 C 412.430 40.711, 421.736 44.350, 432.614 48.014 C 443.965 51.837, 452.833 55.374, 453.428 56.316 C 454.801 58.493, 445.667 86.573, 443.147 87.921 C 440.904 89.122, 334.270 54.235, 332.945 51.867 C 332.339 50.783, 333.519 45.871, 336.665 36.389 C 339.200 28.750, 341.717 21.938, 342.259 21.250 C 343.907 19.160, 346.851 19.762, 365.500 26 C 375.366 29.300, 384.711 32, 386.267 32 C 389.403 32, 394 27.833, 394 24.989 C 394 24.043, 393.074 22.092, 391.941 20.652 C 390.295 18.560, 385.895 16.739, 370.002 11.574 C 347.446 4.244, 345.012 3.733, 339.620 5.203 M 348.994 90.614 C 346.206 99.115, 344.194 106.505, 344.522 107.035 C 344.850 107.566, 345.942 108, 346.950 108 C 352.713 108, 378.175 115.939, 392.295 122.138 C 397.132 124.262, 401.259 126, 401.465 126 C 401.672 126, 403.909 119.491, 406.438 111.535 C 408.967 103.580, 411.286 96.419, 411.591 95.623 C 412.139 94.196, 411.146 93.839, 361.281 77.521 L 354.063 75.158 348.994 90.614 M 2.635 132.073 C -1.087 135, -1.087 141, 2.635 143.927 C 5.219 145.960, 6.214 146, 54.079 146 L 102.888 146 105.611 143.658 C 109.346 140.445, 109.346 135.555, 105.611 132.342 L 102.888 130 54.079 130 C 6.214 130, 5.219 130.040, 2.635 132.073 M 294 148.108 C 256.712 152.328, 225.266 167.574, 198.454 194.432 C 175.097 217.828, 161.296 243.712, 154.818 276.272 C 151.595 292.472, 151.594 318.791, 154.815 334.828 C 167.826 399.605, 214.956 447.158, 280 461.137 C 288.919 463.053, 293.511 463.393, 310.500 463.393 C 327.489 463.393, 332.081 463.053, 341 461.137 C 395.693 449.383, 439.124 412.834, 458.037 362.646 C 466.805 339.379, 470.182 316.347, 468.144 293.721 C 466.045 270.415, 461.785 255.244, 451.514 234.500 C 433.119 197.350, 399.196 168.100, 359.500 155.162 C 338.299 148.252, 314.950 145.737, 294 148.108 M 292 162.616 C 279.678 164.823, 272.484 166.545, 264.664 169.157 C 250.558 173.869, 251.285 172.616, 256.563 183.126 C 261.663 193.281, 261.883 196.274, 257.752 199.345 C 253.018 202.864, 250.275 200.990, 244.850 190.532 C 242.292 185.601, 239.700 181.400, 239.090 181.197 C 238.480 180.993, 234.048 183.441, 229.241 186.635 C 217.039 194.742, 199.125 212.838, 190.704 225.561 C 184.942 234.268, 175.333 252.769, 176.203 253.483 C 176.366 253.618, 180.854 255.165, 186.175 256.921 C 196.395 260.295, 197.459 260.998, 198.476 265.049 C 199.357 268.558, 195.804 273, 192.115 273 C 190.608 273, 185.388 271.652, 180.516 270.005 C 175.643 268.358, 171.562 267.121, 171.447 267.255 C 170.600 268.244, 167.903 283.460, 166.972 292.500 C 164.997 311.690, 167.383 331.346, 174.164 351.750 C 176.403 358.488, 178.416 364, 178.638 364 C 178.859 364, 183.123 361.949, 188.114 359.443 C 198.281 354.337, 201.274 354.116, 204.345 358.248 C 207.940 363.084, 206.042 365.704, 194.699 371.562 L 184.897 376.624 190.820 385.562 C 205.438 407.620, 224.639 424.324, 248.216 435.492 C 253.449 437.972, 258.001 440, 258.329 440 C 258.658 440, 260.366 435.463, 262.123 429.918 C 265.579 419.017, 267.858 416.246, 272.423 417.391 C 278.783 418.988, 279.317 422.728, 275.005 435.484 C 273.358 440.357, 272.128 444.462, 272.272 444.606 C 272.416 444.749, 277.251 445.868, 283.017 447.090 C 291.317 448.850, 296.936 449.326, 310 449.376 C 326.598 449.439, 336.261 448.216, 350 444.313 C 354.668 442.987, 367.830 438.181, 368.812 437.443 C 368.984 437.314, 367.072 433.121, 364.562 428.124 C 359.392 417.830, 359.030 415.260, 362.314 412.174 C 367.264 407.525, 370.693 409.653, 376.561 421.014 C 379.114 425.956, 381.723 430, 382.360 430 C 385.489 430, 401.623 417.592, 412.129 407.106 C 426.510 392.753, 436.802 377.724, 442.974 362.066 L 444.935 357.092 391.758 339.608 L 338.582 322.124 333.940 326.966 C 331.386 329.629, 327.508 332.721, 325.321 333.836 L 321.344 335.865 322.774 347.953 C 324.050 358.746, 324.038 360.293, 322.659 362.397 C 320.437 365.790, 316.261 366.582, 313.073 364.218 C 310.788 362.522, 310.353 361.145, 309.184 351.904 C 307.416 337.924, 307.189 337, 305.518 337 C 301.606 337, 292.668 332.499, 288.460 328.409 C 281.904 322.038, 278.778 314.689, 278.778 305.651 C 278.778 301.493, 279.417 296.939, 280.294 294.838 L 281.811 291.208 268.690 279.354 C 233.108 247.209, 229 243.094, 229 239.593 C 229 235.548, 231.602 233, 235.732 233 C 238.342 233, 242.497 236.364, 263.208 255.250 C 276.629 267.488, 288.279 278.040, 289.097 278.700 C 290.290 279.662, 291.703 279.336, 296.223 277.056 C 299.405 275.451, 304.482 273.908, 307.879 273.514 L 313.898 272.815 315.875 266.658 C 316.962 263.271, 324.635 239.970, 332.926 214.877 C 341.217 189.784, 348 168.586, 348 167.769 C 348 164.978, 333.395 162.758, 313 162.449 C 302.825 162.295, 293.375 162.370, 292 162.616 M 361.354 173.750 C 361.101 174.713, 353.317 198.431, 344.055 226.458 L 327.215 277.415 332.050 281.958 C 337.687 287.253, 341.558 295.066, 342.520 303.085 L 343.189 308.669 395.459 325.835 C 424.207 335.276, 448.176 343, 448.722 343 C 452.280 343, 455.366 302.924, 453.051 286.776 C 446.223 239.139, 417.667 198.912, 375.342 177.305 C 364.123 171.578, 362.061 171.054, 361.354 173.750 M 32 185 C 30.762 186.238, 30 188.333, 30 190.500 C 30 192.667, 30.762 194.762, 32 196 C 33.931 197.931, 35.333 198, 72.927 198 L 111.855 198 113.927 195.365 C 116.677 191.870, 116.545 188.454, 113.545 185.455 L 111.091 183 72.545 183 C 35.333 183, 33.931 183.069, 32 185 M 2.750 289.080 C 0.112 290.617, 0.254 300.530, 2.934 301.965 C 4.142 302.611, 15.912 303, 34.260 303 L 63.651 303 65.826 300.686 C 68.714 297.611, 68.652 292.961, 65.686 290.174 C 63.416 288.042, 62.802 288.001, 33.936 288.030 C 15.809 288.049, 3.828 288.452, 2.750 289.080 M 302.180 289.626 C 296.566 292.487, 293.628 297.336, 293.249 304.370 C 292.981 309.352, 293.352 311.246, 295.230 314.480 C 301.855 325.889, 319.284 325.736, 325.761 314.212 C 330.075 306.536, 327.811 295.850, 320.815 290.868 C 316.545 287.828, 306.963 287.189, 302.180 289.626 M 48 395 C 46.762 396.238, 46 398.333, 46 400.500 C 46 402.667, 46.762 404.762, 48 406 C 49.878 407.878, 51.333 408, 71.826 408 C 93.347 408, 93.682 407.968, 95.826 405.686 C 98.714 402.611, 98.652 397.961, 95.686 395.174 C 93.456 393.080, 92.574 393, 71.686 393 C 51.333 393, 49.877 393.123, 48 395" stroke="none" fill="#000000" fill-rule="evenodd"/><path d="M 431 64.222 C 428.525 72.020, 425.998 79.370, 425.385 80.555 C 424.323 82.606, 424.696 82.846, 433.154 85.549 C 440.871 88.015, 442.218 88.199, 443.397 86.944 C 444.144 86.150, 446.827 79.236, 449.359 71.581 C 452.703 61.474, 453.674 57.312, 452.907 56.388 C 452.040 55.344, 437.704 49.947, 435.997 50.022 C 435.723 50.034, 433.475 56.424, 431 64.222 M 302.768 119.725 C 304.565 119.947, 307.265 119.943, 308.768 119.715 C 310.271 119.486, 308.800 119.304, 305.500 119.310 C 302.200 119.315, 300.971 119.502, 302.768 119.725 M 314.264 119.718 C 315.784 119.947, 318.034 119.941, 319.264 119.704 C 320.494 119.467, 319.250 119.279, 316.500 119.286 C 313.750 119.294, 312.744 119.488, 314.264 119.718 M 366 128.286 C 366 128.518, 368.422 133.836, 371.382 140.104 C 374.342 146.372, 377.829 154.274, 379.132 157.666 C 381.218 163.096, 382.032 164.090, 385.956 166.003 C 392.836 169.355, 404.638 177.535, 413.905 185.372 C 439.552 207.061, 458.693 239.617, 466.141 274.218 C 469.073 287.839, 469.776 314.177, 467.580 328.156 C 461.741 365.328, 446.180 395.417, 419.822 420.500 C 408.215 431.545, 397.755 439.096, 384 446.358 C 374.396 451.429, 351.796 459.950, 347.859 459.985 C 346.957 459.993, 342.842 464.163, 338.716 469.250 C 334.589 474.337, 328.334 481.549, 324.816 485.276 L 318.420 492.052 324.460 491.440 C 366.314 487.201, 400.273 473.191, 430.743 447.591 C 482.167 404.387, 506.414 334.825, 492.998 268.991 C 480.582 208.064, 438.320 156.785, 381.493 133.694 C 369.750 128.922, 366 127.613, 366 128.286 M 178 174.500 C 173.903 178.625, 170.775 182, 171.050 182 C 171.325 182, 174.903 178.625, 179 174.500 C 183.097 170.375, 186.225 167, 185.950 167 C 185.675 167, 182.097 170.375, 178 174.500 M 124.232 294 C 124.232 295.925, 124.438 296.712, 124.689 295.750 C 124.941 294.788, 124.941 293.212, 124.689 292.250 C 124.438 291.288, 124.232 292.075, 124.232 294 M 151.343 305.500 C 151.346 309.900, 151.522 311.576, 151.733 309.224 C 151.945 306.872, 151.942 303.272, 151.727 301.224 C 151.512 299.176, 151.339 301.100, 151.343 305.500 M 166.272 306 C 166.272 308.475, 166.467 309.488, 166.706 308.250 C 166.944 307.012, 166.944 304.988, 166.706 303.750 C 166.467 302.512, 166.272 303.525, 166.272 306 M 124.232 318 C 124.232 319.925, 124.438 320.712, 124.689 319.750 C 124.941 318.788, 124.941 317.212, 124.689 316.250 C 124.438 315.288, 124.232 316.075, 124.232 318 M 197.500 418 C 200.209 420.750, 202.650 423, 202.925 423 C 203.200 423, 201.209 420.750, 198.500 418 C 195.791 415.250, 193.350 413, 193.075 413 C 192.800 413, 194.791 415.250, 197.500 418 M 302.264 464.718 C 303.784 464.947, 306.034 464.941, 307.264 464.704 C 308.494 464.467, 307.250 464.279, 304.500 464.286 C 301.750 464.294, 300.744 464.488, 302.264 464.718 M 314.264 464.718 C 315.784 464.947, 318.034 464.941, 319.264 464.704 C 320.494 464.467, 319.250 464.279, 316.500 464.286 C 313.750 464.294, 312.744 464.488, 314.264 464.718" stroke="none" fill="#2b4d66" fill-rule="evenodd"/><path d="M 342.670 22.200 C 340.505 25.656, 332.737 49.873, 333.313 51.373 C 333.878 52.847, 422.568 82.383, 424.351 81.691 C 425.489 81.249, 435.005 53.779, 434.995 50.964 C 434.991 49.981, 431.519 48.413, 424.439 46.197 C 413.261 42.697, 410.813 40.937, 410 35.820 C 409.533 32.881, 408.964 32.494, 401.362 29.943 L 393.224 27.213 392.146 29.579 C 390.105 34.059, 386.924 33.762, 367.041 27.239 C 342.091 19.054, 344.349 19.521, 342.670 22.200 M 266.577 116.409 C 257.806 118.485, 257.739 118.524, 257.486 121.758 C 257.121 126.433, 255.978 127.371, 246.232 130.997 C 233.490 135.738, 213.889 146.074, 203.029 153.780 C 191.509 161.954, 173.010 179.594, 164.363 190.650 C 107.319 263.595, 111.810 365.899, 175.013 433.242 C 200.634 460.541, 234.379 479.518, 271.500 487.502 C 283.077 489.993, 301.077 491.991, 311.984 491.997 L 318.468 492 324.840 485.250 C 331.079 478.640, 345.148 461.777, 344.718 461.423 C 344.598 461.325, 340.900 461.927, 336.500 462.761 C 324.967 464.947, 296.254 464.893, 284.264 462.662 C 239.410 454.316, 202.956 430.651, 178.454 393.972 C 136.906 331.774, 143.937 249.702, 195.395 196.225 C 226.715 163.677, 265.682 146.992, 310.349 147.004 C 332.971 147.010, 349.952 150.255, 370.250 158.452 C 376.163 160.839, 381 162.591, 381 162.345 C 381 159.837, 366.382 128.906, 364.687 127.826 C 362.666 126.540, 347.441 123.124, 336.622 121.529 C 329.477 120.476, 320.211 119.994, 309.622 120.123 C 300.755 120.231, 290.371 120.361, 286.546 120.410 C 279.849 120.497, 279.515 120.386, 277.503 117.409 L 275.413 114.317 266.577 116.409 M 307.768 449.725 C 309.565 449.947, 312.265 449.943, 313.768 449.715 C 315.271 449.486, 313.800 449.304, 310.500 449.310 C 307.200 449.315, 305.971 449.502, 307.768 449.725" stroke="none" fill="#375e7d" fill-rule="evenodd"/><path d="M 342.670 22.200 C 340.505 25.656, 332.737 49.873, 333.313 51.373 C 333.878 52.847, 422.568 82.383, 424.351 81.691 C 425.489 81.249, 435.005 53.779, 434.995 50.964 C 434.991 49.981, 431.519 48.413, 424.439 46.197 C 413.261 42.697, 410.813 40.937, 410 35.820 C 409.533 32.881, 408.964 32.494, 401.362 29.943 L 393.224 27.213 392.146 29.579 C 390.105 34.059, 386.924 33.762, 367.041 27.239 C 342.091 19.054, 344.349 19.521, 342.670 22.200 M 266.577 116.409 C 257.806 118.485, 257.739 118.524, 257.486 121.758 C 257.121 126.433, 255.978 127.371, 246.232 130.997 C 233.490 135.738, 213.889 146.074, 203.029 153.780 C 191.509 161.954, 173.010 179.594, 164.363 190.650 C 107.319 263.595, 111.810 365.899, 175.013 433.242 C 200.634 460.541, 234.379 479.518, 271.500 487.502 C 283.077 489.993, 301.077 491.991, 311.984 491.997 L 318.468 492 324.840 485.250 C 331.079 478.640, 345.148 461.777, 344.718 461.423 C 344.598 461.325, 340.900 461.927, 336.500 462.761 C 324.967 464.947, 296.254 464.893, 284.264 462.662 C 239.410 454.316, 202.956 430.651, 178.454 393.972 C 136.906 331.774, 143.937 249.702, 195.395 196.225 C 226.715 163.677, 265.682 146.992, 310.349 147.004 C 332.971 147.010, 349.952 150.255, 370.250 158.452 C 376.163 160.839, 381 162.591, 381 162.345 C 381 159.837, 366.382 128.906, 364.687 127.826 C 362.666 126.540, 347.441 123.124, 336.622 121.529 C 329.477 120.476, 320.211 119.994, 309.622 120.123 C 300.755 120.231, 290.371 120.361, 286.546 120.410 C 279.849 120.497, 279.515 120.386, 277.503 117.409 L 275.413 114.317 266.577 116.409 M 307.768 449.725 C 309.565 449.947, 312.265 449.943, 313.768 449.715 C 315.271 449.486, 313.800 449.304, 310.500 449.310 C 307.200 449.315, 305.971 449.502, 307.768 449.725" stroke="none" fill="#375e7d" fill-rule="evenodd"/><path d="M 431 64.222 C 428.525 72.020, 425.998 79.370, 425.385 80.555 C 424.323 82.606, 424.696 82.846, 433.154 85.549 C 440.871 88.015, 442.218 88.199, 443.397 86.944 C 444.144 86.150, 446.827 79.236, 449.359 71.581 C 452.703 61.474, 453.674 57.312, 452.907 56.388 C 452.040 55.344, 437.704 49.947, 435.997 50.022 C 435.723 50.034, 433.475 56.424, 431 64.222 M 302.768 119.725 C 304.565 119.947, 307.265 119.943, 308.768 119.715 C 310.271 119.486, 308.800 119.304, 305.500 119.310 C 302.200 119.315, 300.971 119.502, 302.768 119.725 M 314.264 119.718 C 315.784 119.947, 318.034 119.941, 319.264 119.704 C 320.494 119.467, 319.250 119.279, 316.500 119.286 C 313.750 119.294, 312.744 119.488, 314.264 119.718 M 366 128.286 C 366 128.518, 368.422 133.836, 371.382 140.104 C 374.342 146.372, 377.829 154.274, 379.132 157.666 C 381.218 163.096, 382.032 164.090, 385.956 166.003 C 392.836 169.355, 404.638 177.535, 413.905 185.372 C 439.552 207.061, 458.693 239.617, 466.141 274.218 C 469.073 287.839, 469.776 314.177, 467.580 328.156 C 461.741 365.328, 446.180 395.417, 419.822 420.500 C 408.215 431.545, 397.755 439.096, 384 446.358 C 374.396 451.429, 351.796 459.950, 347.859 459.985 C 346.957 459.993, 342.842 464.163, 338.716 469.250 C 334.589 474.337, 328.334 481.549, 324.816 485.276 L 318.420 492.052 324.460 491.440 C 366.314 487.201, 400.273 473.191, 430.743 447.591 C 482.167 404.387, 506.414 334.825, 492.998 268.991 C 480.582 208.064, 438.320 156.785, 381.493 133.694 C 369.750 128.922, 366 127.613, 366 128.286 M 178 174.500 C 173.903 178.625, 170.775 182, 171.050 182 C 171.325 182, 174.903 178.625, 179 174.500 C 183.097 170.375, 186.225 167, 185.950 167 C 185.675 167, 182.097 170.375, 178 174.500 M 124.232 294 C 124.232 295.925, 124.438 296.712, 124.689 295.750 C 124.941 294.788, 124.941 293.212, 124.689 292.250 C 124.438 291.288, 124.232 292.075, 124.232 294 M 151.343 305.500 C 151.346 309.900, 151.522 311.576, 151.733 309.224 C 151.945 306.872, 151.942 303.272, 151.727 301.224 C 151.512 299.176, 151.339 301.100, 151.343 305.500 M 166.272 306 C 166.272 308.475, 166.467 309.488, 166.706 308.250 C 166.944 307.012, 166.944 304.988, 166.706 303.750 C 166.467 302.512, 166.272 303.525, 166.272 306 M 124.232 318 C 124.232 319.925, 124.438 320.712, 124.689 319.750 C 124.941 318.788, 124.941 317.212, 124.689 316.250 C 124.438 315.288, 124.232 316.075, 124.232 318 M 197.500 418 C 200.209 420.750, 202.650 423, 202.925 423 C 203.200 423, 201.209 420.750, 198.500 418 C 195.791 415.250, 193.350 413, 193.075 413 C 192.800 413, 194.791 415.250, 197.500 418 M 302.264 464.718 C 303.784 464.947, 306.034 464.941, 307.264 464.704 C 308.494 464.467, 307.250 464.279, 304.500 464.286 C 301.750 464.294, 300.744 464.488, 302.264 464.718 M 314.264 464.718 C 315.784 464.947, 318.034 464.941, 319.264 464.704 C 320.494 464.467, 319.250 464.279, 316.500 464.286 C 313.750 464.294, 312.744 464.488, 314.264 464.718" stroke="none" fill="#2b4d66" fill-rule="evenodd"/><path d="M 304.684 289.404 C 299.565 291.290, 297.091 293.647, 294.758 298.863 C 289.874 309.781, 297.802 322.138, 309.791 322.294 C 319.957 322.426, 327.211 315.538, 327.354 305.617 C 327.528 293.600, 315.888 285.275, 304.684 289.404" stroke="none" fill="#ffd772" fill-rule="evenodd"/><path d="M 388.295 186.102 C 389.960 188.704, 393.968 204.426, 396.427 218 C 402.396 250.958, 403.404 286.373, 399.370 321.500 L 398.796 326.500 423.601 334.732 C 441.738 340.751, 448.605 342.639, 449.150 341.757 C 449.561 341.093, 450.707 336.264, 451.698 331.025 C 454.125 318.197, 454.107 292.086, 451.663 279.730 C 445.815 250.169, 432.489 225.305, 411.068 203.988 C 399.398 192.374, 385.145 181.180, 388.295 186.102" stroke="none" fill="#e5384f" fill-rule="evenodd"/><path d="M 208.500 407 C 211.766 410.300, 214.662 413, 214.937 413 C 215.212 413, 212.766 410.300, 209.500 407 C 206.234 403.700, 203.338 401, 203.063 401 C 202.788 401, 205.234 403.700, 208.500 407 M 411 407.500 C 408.571 409.975, 406.809 412, 407.084 412 C 407.359 412, 409.571 409.975, 412 407.500 C 414.429 405.025, 416.191 403, 415.916 403 C 415.641 403, 413.429 405.025, 411 407.500" stroke="none" fill="#e9cad3" fill-rule="evenodd"/><path d="M 295.250 119.689 C 296.212 119.941, 297.788 119.941, 298.750 119.689 C 299.712 119.438, 298.925 119.232, 297 119.232 C 295.075 119.232, 294.288 119.438, 295.250 119.689 M 322.250 119.689 C 323.212 119.941, 324.788 119.941, 325.750 119.689 C 326.712 119.438, 325.925 119.232, 324 119.232 C 322.075 119.232, 321.288 119.438, 322.250 119.689 M 320.250 147.689 C 321.212 147.941, 322.788 147.941, 323.750 147.689 C 324.712 147.438, 323.925 147.232, 322 147.232 C 320.075 147.232, 319.288 147.438, 320.250 147.689 M 198 193.500 C 193.903 197.625, 190.775 201, 191.050 201 C 191.325 201, 194.903 197.625, 199 193.500 C 203.097 189.375, 206.225 186, 205.950 186 C 205.675 186, 202.097 189.375, 198 193.500 M 422 193.500 C 424.987 196.525, 427.657 199, 427.932 199 C 428.207 199, 425.987 196.525, 423 193.500 C 420.013 190.475, 417.343 188, 417.068 188 C 416.793 188, 419.013 190.475, 422 193.500 M 411.500 204 C 414.209 206.750, 416.650 209, 416.925 209 C 417.200 209, 415.209 206.750, 412.500 204 C 409.791 201.250, 407.350 199, 407.075 199 C 406.800 199, 408.791 201.250, 411.500 204 M 496.272 293 C 496.272 295.475, 496.467 296.488, 496.706 295.250 C 496.944 294.012, 496.944 291.988, 496.706 290.750 C 496.467 289.512, 496.272 290.525, 496.272 293 M 468.252 293.500 C 468.263 295.700, 468.468 296.482, 468.707 295.238 C 468.946 293.994, 468.937 292.194, 468.687 291.238 C 468.437 290.282, 468.241 291.300, 468.252 293.500 M 496.272 318 C 496.272 320.475, 496.467 321.488, 496.706 320.250 C 496.944 319.012, 496.944 316.988, 496.706 315.750 C 496.467 314.512, 496.272 315.525, 496.272 318 M 468.232 319 C 468.232 320.925, 468.438 321.712, 468.689 320.750 C 468.941 319.788, 468.941 318.212, 468.689 317.250 C 468.438 316.288, 468.232 317.075, 468.232 319 M 206 405.313 C 206 405.485, 207.463 406.948, 209.250 408.563 L 212.500 411.500 209.563 408.250 C 206.825 405.221, 206 404.540, 206 405.313 M 441.946 437.750 L 438.500 441.500 442.250 438.054 C 444.313 436.158, 446 434.471, 446 434.304 C 446 433.540, 445.154 434.260, 441.946 437.750 M 183 442.500 C 184.866 444.425, 186.617 446, 186.892 446 C 187.167 446, 185.866 444.425, 184 442.500 C 182.134 440.575, 180.383 439, 180.108 439 C 179.833 439, 181.134 440.575, 183 442.500 M 324.250 491.689 C 325.212 491.941, 326.788 491.941, 327.750 491.689 C 328.712 491.438, 327.925 491.232, 326 491.232 C 324.075 491.232, 323.288 491.438, 324.250 491.689" stroke="none" fill="#15232e" fill-rule="evenodd"/></svg>